<mxfile host="app.diagrams.net" modified="2023-11-26T05:31:57.904Z" agent="Mozilla/5.0 (Windows NT 10.0; Win64; x64) AppleWebKit/537.36 (KHTML, like Gecko) Chrome/117.0.0.0 Safari/537.36" etag="-j7q40ZleMg1U1_XKA9y" version="22.1.4" type="device">
  <diagram name="Page-1" id="EV6tU0ZUvS-ZPkKrUsJb">
    <mxGraphModel dx="854" dy="424" grid="1" gridSize="10" guides="1" tooltips="1" connect="1" arrows="1" fold="1" page="1" pageScale="1" pageWidth="850" pageHeight="1100" math="0" shadow="0">
      <root>
        <mxCell id="0" />
        <mxCell id="1" parent="0" />
        <mxCell id="cx_YlLns0FvfJuMcvo1_-2" value="Docker" style="rounded=1;whiteSpace=wrap;html=1;fillColor=#76608a;strokeColor=#432D57;fontColor=#ffffff;" parent="1" vertex="1">
          <mxGeometry x="320" y="40" width="160" height="40" as="geometry" />
        </mxCell>
        <mxCell id="cx_YlLns0FvfJuMcvo1_-3" value="Images" style="rounded=1;whiteSpace=wrap;html=1;fillColor=#f0a30a;strokeColor=#BD7000;fontColor=#000000;" parent="1" vertex="1">
          <mxGeometry x="130" y="120" width="150" height="40" as="geometry" />
        </mxCell>
        <mxCell id="cx_YlLns0FvfJuMcvo1_-4" value="Containers&lt;br&gt;" style="rounded=1;whiteSpace=wrap;html=1;fillColor=#CC00CC;strokeColor=#996185;gradientColor=none;fontColor=#FFFFFF;" parent="1" vertex="1">
          <mxGeometry x="520" y="120" width="150" height="40" as="geometry" />
        </mxCell>
        <mxCell id="cx_YlLns0FvfJuMcvo1_-5" value="Templates/Blueprint for the containers" style="rounded=1;whiteSpace=wrap;html=1;fillColor=#fff2cc;strokeColor=#d6b656;" parent="1" vertex="1">
          <mxGeometry x="80" y="180" width="240" height="40" as="geometry" />
        </mxCell>
        <mxCell id="cx_YlLns0FvfJuMcvo1_-6" value="Contains code + required tools/runtimes" style="rounded=1;whiteSpace=wrap;html=1;fillColor=#fff2cc;strokeColor=#d6b656;" parent="1" vertex="1">
          <mxGeometry x="80" y="240" width="240" height="40" as="geometry" />
        </mxCell>
        <mxCell id="cx_YlLns0FvfJuMcvo1_-7" value="Running unit of Software/application" style="rounded=1;whiteSpace=wrap;html=1;fillColor=#e6d0de;strokeColor=#996185;gradientColor=none;" parent="1" vertex="1">
          <mxGeometry x="480" y="180" width="240" height="40" as="geometry" />
        </mxCell>
        <mxCell id="cx_YlLns0FvfJuMcvo1_-8" value="" style="shape=flexArrow;endArrow=classic;html=1;rounded=0;fillColor=#ffff88;strokeColor=#36393d;" parent="1" edge="1">
          <mxGeometry width="50" height="50" relative="1" as="geometry">
            <mxPoint x="340" y="200" as="sourcePoint" />
            <mxPoint x="470" y="200" as="targetPoint" />
          </mxGeometry>
        </mxCell>
        <mxCell id="cu6M0lWIfghB0qxQI279-1" value="" style="endArrow=none;html=1;rounded=0;" parent="1" edge="1">
          <mxGeometry width="50" height="50" relative="1" as="geometry">
            <mxPoint x="400" y="100" as="sourcePoint" />
            <mxPoint x="400" y="80" as="targetPoint" />
          </mxGeometry>
        </mxCell>
        <mxCell id="cu6M0lWIfghB0qxQI279-2" value="" style="endArrow=none;html=1;rounded=0;" parent="1" edge="1">
          <mxGeometry width="50" height="50" relative="1" as="geometry">
            <mxPoint x="200" y="100" as="sourcePoint" />
            <mxPoint x="600" y="100" as="targetPoint" />
          </mxGeometry>
        </mxCell>
        <mxCell id="cu6M0lWIfghB0qxQI279-3" value="" style="endArrow=classic;html=1;rounded=0;" parent="1" edge="1">
          <mxGeometry width="50" height="50" relative="1" as="geometry">
            <mxPoint x="200" y="100" as="sourcePoint" />
            <mxPoint x="200" y="120" as="targetPoint" />
          </mxGeometry>
        </mxCell>
        <mxCell id="cu6M0lWIfghB0qxQI279-4" value="" style="endArrow=classic;html=1;rounded=0;entryX=0.533;entryY=0;entryDx=0;entryDy=0;entryPerimeter=0;" parent="1" target="cx_YlLns0FvfJuMcvo1_-4" edge="1">
          <mxGeometry width="50" height="50" relative="1" as="geometry">
            <mxPoint x="600" y="100" as="sourcePoint" />
            <mxPoint x="210" y="130" as="targetPoint" />
          </mxGeometry>
        </mxCell>
        <mxCell id="cu6M0lWIfghB0qxQI279-6" value="Can create multiple containers from &lt;br style=&quot;font-size: 12px;&quot;&gt;the same image&amp;nbsp; on different machines, and &lt;br&gt;different servers." style="text;strokeColor=none;fillColor=none;html=1;fontSize=12;fontStyle=0;verticalAlign=middle;align=left;" parent="1" vertex="1">
          <mxGeometry x="480" y="257.5" width="100" height="5" as="geometry" />
        </mxCell>
        <mxCell id="cu6M0lWIfghB0qxQI279-7" value="sharable package with all the setup instructions &lt;br&gt;and all the code" style="text;strokeColor=none;fillColor=none;html=1;fontSize=12;fontStyle=0;verticalAlign=middle;align=left;" parent="1" vertex="1">
          <mxGeometry x="80" y="310" width="100" height="10" as="geometry" />
        </mxCell>
        <mxCell id="cu6M0lWIfghB0qxQI279-11" value="Images are either prebuilt shared (like &lt;br&gt;on docker hub), used as base image upon which&amp;nbsp;&lt;br&gt;custom image might be built&amp;nbsp;&lt;br&gt;custom image - Write your own Dockerfile" style="text;strokeColor=none;fillColor=none;html=1;fontSize=12;fontStyle=0;verticalAlign=middle;align=left;" parent="1" vertex="1">
          <mxGeometry x="80" y="360" width="100" height="10" as="geometry" />
        </mxCell>
        <mxCell id="cu6M0lWIfghB0qxQI279-12" value="&lt;h1&gt;Basic Docker Commands&lt;/h1&gt;&lt;p&gt;docker ps - list currently running containers&lt;/p&gt;&lt;p&gt;docker ps -a - list all containers including ones that are shutdown&lt;/p&gt;&lt;p&gt;docker run -it node - it creates an interactive session from inside container to hosting macine&lt;/p&gt;" style="text;html=1;strokeColor=none;fillColor=none;spacing=5;spacingTop=-20;whiteSpace=wrap;overflow=hidden;rounded=0;" parent="1" vertex="1">
          <mxGeometry x="88" y="419" width="660" height="120" as="geometry" />
        </mxCell>
      </root>
    </mxGraphModel>
  </diagram>
</mxfile>
